<?xml version="1.0" encoding="UTF-8"?>
<svg viewBox="0 0 176.5 167.656" xmlns="http://www.w3.org/2000/svg">
 <path d="m87.906 0.5-29.469 92.094 5.9688 4.8125 22.75-71.75 11.688 35.063 8.6875-0.25-19.625-59.969zm7.0938 11.969 2.4688 8.1875c23.708 3.049 43.674 18.052 53.688 38.75l8.8438 0.375c-10.898-26.06-35.613-44.877-65-47.313zm-13.812 0.0625c-29.949 2.7982-54.944 22.627-65.188 49.719h8.5312c9.4161-21.923 29.759-38.037 54.188-41.469l2.4688-8.25zm94.812 49.438-97.812 1.625-2.1562 7.2188 77.281-0.875-32.406 23.875 2 7.625 53.094-39.469zm-111.5 1.875-64 1.0625 79.281 56.438 6.7188-5.2188-61.562-44.719 37.406-0.4375 2.1562-7.125zm47 8.7812-8.5938 0.25 24.219 72.75-30.188-21.938-7.1562 4.7812 52.156 37.156-30.438-93zm52.781 0.8125-7.1562 4.8125c0.6132 3.715 0.9375 7.5172 0.9375 11.406 0 19.918-8.37 37.875-21.781 50.563l2.3438 8.5312c16.728-14.218 27.344-35.423 27.344-59.094 0-5.5632-0.57343-10.988-1.6875-16.219zm-152.06 2.6875c-0.77394 4.3942-1.1875 8.915-1.1875 13.531 0 23.178 10.184 43.983 26.312 58.188l2.5312-8.4062c-12.942-12.639-20.969-30.27-20.969-49.781 0-3.036 0.18514-6.0355 0.5625-8.9688l-7.25-4.5625zm97.781 25.75-61.344 45.25 11.562-36.5-6.2188-4.25-19.438 60.719 77.594-57.688-2.1562-7.5312zm8.5625 50.562c-9.0953 4.3653-19.3 6.8125-30.062 6.8125-10.736 0-20.919-2.4366-30-6.7812l-7.4062 5.0625c11.09 6.1301 23.84 9.625 37.406 9.625 13.563 0 26.319-3.4976 37.406-9.625l-7.3438-5.0938z" stroke="#000"/>
</svg>
